<?xml version="1.0" ?><svg enable-background="new 0 0 52 52" id="Layer_1" version="1.1" viewBox="0 0 52 52" xml:space="preserve" xmlns="http://www.w3.org/2000/svg" xmlns:xlink="http://www.w3.org/1999/xlink"><g><path d="M47.9818192,11.6695557h-3.0493774c0.0388794-0.1068115,0.0683594-0.218811,0.0683594-0.3391113v-2   c0-0.5522461-0.4472656-1-1-1s-1,0.4477539-1,1v2c0,0.1203003,0.029541,0.2322998,0.0684204,0.3391113H11.9324408   c0.0388794-0.1068115,0.0683594-0.218811,0.0683594-0.3391113v-2c0-0.5522461-0.4472656-1-1-1s-1,0.4477539-1,1v2   c0,0.1203003,0.029541,0.2322998,0.0684204,0.3391113h-1.517395c-1.9100337,0-3.6400142,1.0700073-4.4199824,2.7299805   l-1.6600344,3.5599976c-0.4899902,1.0300293-0.5299683,2.1900024-0.1199951,3.2600098   c0.4199829,1.1199951,1.2800293,2,2.4000247,2.4799805l0.2399902,0.1100464   c0.7099609,0.2999878,1.0800171,1.0199585,0.8800049,1.6999512L2.1618111,38.3595581   c-0.3599854,1.2199707-0.1199951,2.5200195,0.6600342,3.5499878c0.8199463,1.0999756,2.1499636,1.7600098,3.5599978,1.7600098   h5.269958c1.960022,0,3.6900024-1.2700195,4.210022-3.0700073l2.8727427-9.9317017h2.1968994   c4.4492188,0,8.0693359-3.6201172,8.0693359-8.0698242v-0.1884766h16.6409912c2.4000244,0,4.3600464-1.8699951,4.3600464-4.1699829   v-4.6099854C50.0018387,12.5495605,49.0918045,11.6695557,47.9818192,11.6695557z M20.9314651,28.6678467h-1.6184082   l1.3387451-4.6282959c0.0857544-0.2940674,0.2401733-0.5561523,0.4358521-0.7848511l2.163147,2.163147   c0.1953125,0.1953125,0.4511719,0.2929688,0.7070313,0.2929688s0.5117188-0.0976563,0.7070313-0.2929688   c0.390625-0.390625,0.390625-1.0234375,0-1.4140625l-1.3359375-1.3359375h3.671875   C26.9627151,25.9827881,24.2547073,28.6678467,20.9314651,28.6678467z"/></g></svg>